<svg width="32" height="32" viewBox="0 0 32 32" fill="none" xmlns="http://www.w3.org/2000/svg">
<path d="M16 32C24.8366 32 32 24.8366 32 16C32 7.16344 24.8366 0 16 0C7.16344 0 0 7.16344 0 16C0 24.8366 7.16344 32 16 32Z" fill="#BDD1DF"/>
<path fill-rule="evenodd" clip-rule="evenodd" d="M18.979 8.93993H17.328C16.8887 8.89767 16.4455 8.95203 16.0293 9.09886C15.6132 9.2457 15.2341 9.48147 14.9186 9.79003C14.6031 10.0986 14.3587 10.4724 14.2027 10.8852C14.0466 11.298 13.9825 11.7398 14.015 12.1799V13.99H12.015L12.021 16H14.014L13.984 24.01H17.014V16.03L18.752 16L19.376 13.99H16.982V11.9299C16.9818 11.7978 17.0099 11.6672 17.0644 11.5469C17.1189 11.4265 17.1984 11.319 17.2978 11.2319C17.3971 11.1448 17.5139 11.08 17.6404 11.0417C17.7668 11.0034 17.9 10.9926 18.031 11.01H18.969L18.979 8.93993Z" fill="white"/>
</svg>
