<svg width="118" height="37" viewBox="0 0 118 37" fill="none" xmlns="http://www.w3.org/2000/svg">
<path fill-rule="evenodd" clip-rule="evenodd" d="M34.341 26.3809L33.194 32.4669C28.5073 35.2367 23.2024 36.7905 17.762 36.9869C7.72399 37.3229 0.983002 31.3959 0.983002 21.0409C0.983002 8.92589 9.309 0.57189 21.683 0.70789C25.9294 0.646727 30.1058 1.79398 33.725 4.01589L30.372 11.6469C28.2391 10.8072 25.9641 10.3875 23.672 10.4109C17.562 10.4109 14.58 14.3759 14.409 19.4979C14.233 24.7909 17.504 28.2979 22.349 28.7609C26.4959 29.2187 30.6832 28.3877 34.341 26.3809ZM56.791 28.2649C56.537 30.0859 57.212 31.2109 61.446 29.3579L62.968 33.8579C57.675 36.3499 54.462 36.9889 52.345 36.9889C49.126 36.9889 47.22 35.6759 46.501 33.7709C44.4979 35.8016 41.7733 36.9583 38.921 36.9889C34.432 36.9889 31.721 33.6889 32.357 29.2399L34.517 13.9949H44.765L42.943 26.8259C42.8852 27.071 42.883 27.3259 42.9365 27.572C42.99 27.8181 43.0979 28.049 43.2523 28.248C43.4067 28.4469 43.6036 28.6088 43.8287 28.7218C44.0537 28.8348 44.3012 28.896 44.553 28.9009C45.0961 28.8547 45.6069 28.6234 45.9999 28.2457C46.3929 27.868 46.6443 27.3668 46.712 26.8259L48.533 13.9949H58.781L56.791 28.2649ZM77.158 16.1999L78.682 5.14789H88.93L85.669 28.4379C85.458 30.0889 86.214 31.3249 90.448 29.0319L92.124 33.7959C88.8419 35.8173 85.078 36.9223 81.224 36.9959C78.091 36.9549 76.1 35.5559 75.424 33.4809C74.5733 34.5893 73.4759 35.4841 72.219 36.0943C70.962 36.7044 69.5801 37.0131 68.183 36.9959C63.44 36.9959 60.683 32.5959 60.683 27.0869C60.683 19.3379 65.637 13.4519 71.819 13.4519C72.869 13.4192 73.91 13.6543 74.8441 14.135C75.7781 14.6158 76.5744 15.3264 77.158 16.1999ZM76.777 24.5849C76.777 22.8059 75.803 21.4089 74.277 21.4089C72.287 21.4089 70.72 23.4419 70.72 25.7709C70.72 27.5489 71.652 28.9469 73.22 28.9469C75.168 28.9419 76.777 26.9099 76.777 24.5809V24.5849ZM106.5 16.1999L106.8 13.9999H117.048L115.015 28.4399C114.803 30.0909 115.82 30.3879 117.386 30.0069L117.025 34.3919C115.23 35.9659 112.954 36.8828 110.569 36.9919C107.435 36.9919 105.445 35.5519 104.769 33.4769C103.919 34.5853 102.821 35.4801 101.565 36.0902C100.308 36.7004 98.926 37.0091 97.529 36.9919C92.785 36.9919 90.029 32.5919 90.029 27.0829C90.029 19.5029 94.983 13.4479 101.166 13.4479C102.215 13.4166 103.256 13.6527 104.189 14.1341C105.122 14.6156 105.917 15.3264 106.5 16.1999ZM106.119 24.5849C106.119 22.8059 105.145 21.4089 103.619 21.4089C101.629 21.4089 100.062 23.4419 100.062 25.7709C100.062 27.5489 100.994 28.9469 102.562 28.9469C104.512 28.9419 106.122 26.9099 106.122 24.5809L106.119 24.5849Z" fill="white"/>
</svg>
