<svg width="32" height="32" viewBox="0 0 32 32" fill="none" xmlns="http://www.w3.org/2000/svg">
<path d="M16 32C24.8366 32 32 24.8366 32 16C32 7.16344 24.8366 0 16 0C7.16344 0 0 7.16344 0 16C0 24.8366 7.16344 32 16 32Z" fill="#BDD1DF"/>
<path fill-rule="evenodd" clip-rule="evenodd" d="M8.60901 12.1799C9.09601 12.4499 14.847 16.1901 15.098 16.3301C15.3815 16.4618 15.6904 16.53 16.003 16.53C16.3156 16.53 16.6245 16.4618 16.908 16.3301C17.159 16.1901 22.908 12.4499 23.397 12.1799C23.886 11.9099 24.347 11.0601 23.451 11.0601H8.551C7.66 11.0601 8.12101 11.9099 8.60901 12.1799ZM23.609 14.24C23.055 14.54 17.252 18.2099 16.909 18.3899C16.6255 18.5216 16.3166 18.5898 16.004 18.5898C15.6914 18.5898 15.3825 18.5216 15.099 18.3899C14.76 18.2099 8.95699 14.54 8.39899 14.24C8.00899 14.03 8.013 14.27 8.013 14.46V22.02C8.05147 22.2688 8.16816 22.4988 8.34616 22.6768C8.52416 22.8548 8.75422 22.9715 9.00299 23.01H23C23.2489 22.9716 23.4791 22.855 23.6573 22.677C23.8354 22.499 23.9523 22.2689 23.991 22.02V14.46C23.991 14.27 23.994 14.03 23.6 14.24H23.609Z" fill="white"/>
</svg>
