<svg width="32" height="32" viewBox="0 0 32 32" fill="none" xmlns="http://www.w3.org/2000/svg">
<path d="M16 32C24.8366 32 32 24.8366 32 16C32 7.16344 24.8366 0 16 0C7.16344 0 0 7.16344 0 16C0 24.8366 7.16344 32 16 32Z" fill="#BDD1DF"/>
<path fill-rule="evenodd" clip-rule="evenodd" d="M24.984 11.6599C24.3498 11.9454 23.6751 12.131 22.984 12.2099C23.712 11.765 24.2555 11.0728 24.515 10.26C23.8333 10.6701 23.0849 10.9579 22.304 11.1101C21.8253 10.5953 21.2019 10.2375 20.5159 10.0842C19.8299 9.93088 19.1136 9.98911 18.4613 10.2512C17.8091 10.5132 17.2515 10.9669 16.8623 11.5522C16.4731 12.1375 16.2704 12.8271 16.281 13.53C16.2807 13.8025 16.3109 14.0743 16.371 14.34C14.9815 14.2655 13.6235 13.8973 12.3867 13.2595C11.1499 12.6217 10.0625 11.7287 9.19601 10.6399C8.88633 11.1819 8.72361 11.7956 8.724 12.4199C8.72136 12.9994 8.86126 13.5708 9.13138 14.0835C9.4015 14.5961 9.79356 15.0346 10.273 15.3601C9.71854 15.3495 9.17588 15.1979 8.69601 14.9199V14.9699C8.69156 15.78 8.96698 16.5668 9.47571 17.1972C9.98444 17.8277 10.6953 18.2631 11.488 18.4299C11.1895 18.5141 10.8811 18.558 10.571 18.56C10.3507 18.5621 10.1309 18.5385 9.91599 18.4899C10.1321 19.1891 10.5624 19.8027 11.1461 20.2441C11.7298 20.6855 12.4374 20.9324 13.169 20.9499C11.9414 21.9304 10.4161 22.463 8.845 22.4599C8.56749 22.4635 8.2901 22.4467 8.01501 22.4099C9.59973 23.4507 11.4551 24.0036 13.351 24C14.6643 23.9978 15.964 23.735 17.1749 23.2268C18.3858 22.7185 19.4838 21.975 20.4051 21.0393C21.3265 20.1035 22.0529 18.994 22.5423 17.7753C23.0317 16.5567 23.2743 15.253 23.256 13.9399C23.256 13.7899 23.256 13.6399 23.246 13.4899C23.9269 12.9852 24.515 12.3659 24.984 11.6599Z" fill="white"/>
</svg>
